<?xml version="1.0" standalone="no"?>
<!DOCTYPE svg PUBLIC "-//W3C//DTD SVG 20010904//EN"
 "http://www.w3.org/TR/2001/REC-SVG-20010904/DTD/svg10.dtd">
<svg version="1.0" xmlns="http://www.w3.org/2000/svg"
 width="260.000000pt" height="260.000000pt" viewBox="0 0 260.000000 260.000000"
 preserveAspectRatio="xMidYMid meet">
<metadata>
Created by potrace 1.14, written by Peter Selinger 2001-2017
</metadata>
<g transform="translate(0.000000,260.000000) scale(0.100000,-0.100000)"
fill="#000000" stroke="none">
<path d="M991 2581 c-6 -10 -8 -21 -5 -23 3 -3 -2 -8 -10 -11 -9 -4 -22 1 -31
9 -9 10 -15 11 -15 4 0 -7 -7 -10 -15 -7 -8 4 -17 1 -21 -5 -4 -7 -3 -8 4 -4
7 4 12 2 12 -5 0 -9 3 -9 14 0 11 9 16 9 22 0 4 -7 3 -9 -4 -5 -6 3 -13 2 -16
-3 -4 -6 -18 -6 -35 -1 -26 7 -30 5 -36 -18 l-7 -27 -12 24 c-11 20 -14 21
-19 7 -4 -10 -12 -14 -18 -10 -8 5 -9 3 -4 -6 6 -10 4 -12 -8 -7 -9 3 -19 1
-23 -5 -5 -7 -2 -8 7 -3 12 7 12 6 0 -6 -10 -11 -15 -11 -18 -1 -3 6 -9 12
-14 12 -6 0 -7 -4 -4 -10 3 -6 -4 -10 -17 -10 -17 0 -20 -2 -9 -9 8 -5 19 -8
25 -7 6 2 8 1 3 -1 -4 -3 -5 -9 -1 -14 3 -5 -11 0 -30 11 -20 11 -35 16 -33
12 1 -4 -1 -7 -4 -7 -4 0 -16 -8 -26 -18 -11 -9 -23 -14 -28 -10 -4 5 -5 2 -1
-4 4 -8 2 -13 -5 -13 -7 0 -9 -3 -6 -6 4 -4 13 -1 21 5 10 8 16 9 21 1 4 -6 1
-9 -7 -8 -7 2 -12 -2 -11 -9 2 -8 -4 -10 -14 -6 -12 5 -14 3 -8 -8 4 -8 5 -11
0 -7 -4 4 -15 2 -23 -5 -13 -10 -14 -9 -3 11 l12 23 -28 -17 c-37 -24 -42 -29
-20 -21 10 4 16 3 12 -2 -3 -5 1 -12 7 -15 7 -3 1 -3 -14 0 -24 5 -26 3 -21
-18 3 -17 2 -20 -5 -9 -12 17 -45 25 -35 8 4 -7 0 -8 -13 -3 -15 6 -16 5 -7
-5 10 -10 16 -9 29 2 16 13 16 12 4 -8 -8 -12 -18 -19 -22 -17 -4 3 -8 -2 -8
-10 0 -9 -4 -16 -9 -16 -6 0 -8 9 -6 20 2 12 0 18 -6 15 -5 -4 -7 -10 -4 -15
3 -5 1 -11 -5 -15 -5 -3 -10 -1 -10 6 0 7 -3 9 -7 6 -3 -4 2 -17 13 -29 15
-18 16 -20 2 -9 -12 9 -18 10 -18 2 0 -18 4 -26 13 -23 5 1 6 -2 2 -8 -7 -11
-42 7 -48 25 -2 5 -3 2 -1 -8 1 -11 -3 -16 -13 -15 -10 2 -17 -6 -19 -20 -3
-14 0 -21 6 -17 5 3 10 1 10 -4 0 -14 -17 -14 -25 -1 -5 8 -11 7 -21 -1 -7 -6
-11 -15 -8 -20 3 -5 1 -9 -5 -9 -6 0 -7 -8 -4 -17 6 -16 5 -17 -12 -3 -17 14
-18 14 -7 -6 9 -16 8 -21 -3 -21 -8 0 -12 4 -9 8 2 4 -1 11 -7 15 -8 4 -9 3
-5 -4 4 -7 1 -12 -6 -12 -7 -1 -3 -6 10 -14 19 -10 21 -14 9 -24 -10 -9 -17
-9 -27 1 -10 10 -11 9 -5 -2 6 -11 4 -13 -10 -8 -17 7 -17 6 0 -19 9 -15 12
-24 7 -20 -6 3 -14 2 -17 -4 -5 -8 -11 -7 -21 1 -19 16 -18 1 1 -18 12 -12 13
-18 4 -29 -9 -12 -15 -12 -27 -2 -14 12 -14 10 -2 -12 13 -24 12 -24 -5 -10
-17 14 -17 14 -7 -7 8 -14 9 -24 2 -28 -6 -4 -8 -10 -5 -15 3 -5 1 -11 -4 -15
-5 -3 -14 1 -18 10 -7 12 -11 11 -21 -6 -8 -12 -9 -18 -4 -15 5 3 12 -3 15
-15 4 -15 2 -18 -7 -10 -16 13 -27 4 -19 -15 3 -8 10 -11 16 -7 6 3 7 1 3 -5
-4 -7 -14 -12 -22 -12 -8 0 -13 -4 -9 -10 3 -5 13 -7 23 -4 14 5 14 4 2 -4 -8
-6 -17 -9 -21 -6 -4 2 -10 0 -14 -6 -3 -5 2 -10 12 -11 16 0 16 -1 -2 -8 -11
-5 -23 -7 -27 -4 -4 2 -5 -3 -2 -12 5 -13 9 -13 23 -3 10 8 9 4 -4 -12 -11
-14 -24 -28 -30 -32 -5 -4 -6 -8 -1 -8 5 0 2 -8 -7 -18 -10 -10 -15 -21 -12
-24 8 -7 -16 -58 -25 -53 -3 2 -7 -115 -8 -261 -1 -200 2 -264 11 -264 8 0 9
-3 1 -8 -12 -8 -14 -63 -3 -56 4 2 6 13 4 24 -2 11 0 20 6 20 13 0 11 -44 -3
-60 -7 -8 -3 -6 10 5 13 11 23 15 22 10 -5 -23 1 -36 13 -29 8 5 8 2 -2 -9
-11 -14 -11 -17 0 -17 9 0 10 -3 4 -8 -15 -11 -14 -70 2 -76 8 -3 12 -2 9 3
-3 5 1 12 10 15 15 6 15 4 0 -18 -9 -14 -16 -29 -16 -33 0 -4 4 -2 9 5 11 18
35 -40 28 -68 -3 -11 -2 -20 1 -21 31 -3 47 -10 61 -25 9 -9 10 -14 3 -10 -7
5 -16 -2 -22 -19 -13 -34 -12 -45 1 -22 10 17 30 24 28 10 -1 -5 0 -11 1 -15
1 -5 3 -14 4 -20 1 -7 7 -12 13 -11 6 1 10 -8 8 -23 -2 -19 1 -24 14 -19 8 3
12 3 8 -1 -4 -4 -1 -14 6 -22 10 -13 9 -14 -3 -7 -23 15 -45 16 -31 2 16 -16
44 -18 54 -4 5 7 5 2 2 -12 -5 -16 -4 -21 4 -17 6 4 11 0 11 -8 0 -9 5 -16 12
-16 6 0 8 -3 5 -6 -4 -4 -13 -2 -20 4 -10 9 -14 8 -14 -3 0 -8 4 -12 8 -9 4 2
15 -3 23 -12 9 -8 16 -12 16 -8 0 3 6 1 13 -5 8 -6 18 -7 23 -3 5 4 0 -3 -11
-16 -14 -17 -16 -23 -5 -20 8 2 17 6 20 10 3 4 12 -3 19 -15 13 -20 13 -21 -2
-9 -14 12 -16 11 -14 -6 0 -12 6 -18 14 -15 7 3 13 -2 13 -11 0 -9 5 -16 11
-16 5 0 7 -5 3 -12 -5 -7 -3 -8 5 -3 9 5 10 10 2 18 -6 6 -11 18 -11 26 0 9 7
3 15 -13 8 -15 13 -31 11 -35 -6 -9 16 -36 37 -44 10 -4 16 -3 13 1 -2 4 4 9
15 9 10 1 19 -3 19 -8 0 -6 -5 -7 -10 -4 -6 3 -10 -1 -10 -10 0 -9 4 -13 10
-10 5 3 10 1 10 -4 0 -6 11 -11 24 -11 27 0 42 -26 26 -45 -7 -8 -5 -12 5 -12
8 0 12 4 10 8 -3 3 3 9 13 11 11 3 19 0 19 -8 0 -7 -5 -10 -11 -7 -6 3 -1 -5
12 -19 23 -26 63 -32 92 -13 13 8 13 7 1 -8 -7 -9 -17 -15 -20 -12 -4 2 -8 -1
-8 -8 0 -19 45 -13 63 9 15 18 15 18 5 -2 -12 -25 -11 -65 2 -57 4 3 6 11 3
19 -3 7 0 16 6 20 7 4 8 3 4 -4 -4 -7 -2 -12 4 -12 7 0 9 -9 5 -22 -4 -13 -3
-18 2 -12 4 7 22 14 38 15 27 4 30 1 27 -21 -1 -18 1 -21 7 -11 5 8 10 9 12 2
2 -6 14 -12 27 -14 13 -2 27 -9 31 -16 6 -10 10 -9 14 3 6 15 47 18 47 3 0 -4
4 -6 9 -3 5 3 14 -1 21 -9 10 -12 16 -13 28 -3 13 10 14 10 8 1 -11 -19 5 -16
19 3 11 15 12 15 12 0 0 -9 -4 -16 -9 -16 -5 0 -7 -4 -4 -8 2 -4 -4 -8 -14 -8
-10 0 -16 5 -13 10 3 5 1 6 -5 2 -6 -3 -18 1 -26 10 -9 8 -16 11 -16 5 0 -5 5
-13 10 -16 6 -4 8 -9 6 -13 -7 -12 69 -10 76 2 6 8 8 8 8 -1 0 -9 67 -12 278
-11 l279 1 -2 27 c-1 20 2 27 12 23 8 -3 11 -14 8 -27 -6 -20 -6 -20 6 -1 18
30 19 31 30 15 9 -12 10 -12 5 3 -3 9 -1 17 5 17 6 0 7 5 3 12 -4 7 -3 8 5 4
6 -4 9 -11 6 -16 -3 -5 -1 -12 5 -15 6 -4 9 -1 8 7 -2 7 5 12 15 12 9 -1 17 2
17 7 0 5 4 9 10 9 5 0 8 -6 6 -13 -1 -6 -1 -9 1 -4 3 4 10 4 15 1 7 -5 8 -2 4
5 -5 8 0 14 13 18 11 3 18 10 15 15 -4 6 6 8 25 5 17 -3 33 -1 37 4 3 5 8 7
12 5 4 -2 13 2 20 10 15 17 8 18 -18 4 -16 -8 -18 -8 -14 5 3 8 10 12 15 9 5
-3 9 2 9 10 0 8 4 18 10 21 5 3 7 0 4 -8 -3 -8 2 -17 12 -21 12 -4 15 -2 10 9
-6 16 18 16 43 1 9 -6 12 -5 7 2 -3 5 0 13 6 15 10 4 10 6 1 6 -7 1 -13 8 -13
17 0 14 1 14 16 0 21 -22 27 -20 14 5 -7 11 -9 23 -6 27 3 3 6 0 6 -7 0 -7 5
-9 12 -5 7 5 9 2 4 -7 -4 -8 -2 -7 6 2 8 10 25 15 43 13 24 -2 27 -1 12 7 -9
6 -21 8 -25 5 -5 -3 -9 1 -9 7 0 8 12 12 29 11 23 -2 27 1 18 11 -8 10 -8 15
1 21 8 4 9 3 5 -4 -5 -8 0 -11 16 -8 13 2 22 9 20 16 -2 8 3 10 15 6 9 -4 14
-4 10 0 -4 5 2 13 14 19 19 11 19 13 5 18 -10 4 -15 3 -11 -3 3 -6 1 -11 -4
-11 -6 -1 -17 -2 -23 -3 -7 -1 -12 -10 -11 -20 1 -13 -2 -15 -10 -7 -11 11 9
45 23 36 4 -3 11 2 14 11 4 10 13 13 25 9 11 -3 23 0 27 6 4 7 3 9 -2 6 -6 -3
-16 -2 -23 2 -9 6 -4 8 13 8 14 0 26 -4 26 -10 0 -6 3 -7 6 -4 4 4 1 13 -6 22
-9 11 -9 15 -1 15 7 0 9 5 5 12 -4 7 -3 8 5 4 6 -4 8 -12 5 -18 -5 -7 -2 -8 5
-4 7 5 10 14 7 21 -3 10 3 12 22 9 l27 -4 -24 14 -25 14 22 13 c12 8 22 17 22
22 0 4 -5 5 -12 1 -7 -4 -8 -3 -4 5 5 7 12 9 19 3 19 -15 46 -11 40 6 -5 11
-7 11 -14 0 -7 -11 -9 -11 -9 0 0 8 9 16 20 19 23 6 25 14 8 32 -11 10 -9 11
5 5 20 -7 49 23 42 43 -2 7 3 19 11 28 18 18 38 20 28 3 -4 -6 -3 -8 4 -5 13
9 9 36 -7 46 -10 6 -9 10 4 15 9 3 13 11 9 17 -4 8 -3 9 5 5 8 -6 9 -12 2 -20
-8 -9 -7 -13 3 -13 9 0 13 8 11 20 -3 14 0 17 13 12 14 -5 15 -4 5 6 -18 18
-16 34 2 19 10 -8 15 -9 15 -2 0 6 -8 16 -17 22 -16 10 -16 11 -1 6 17 -5 28
11 35 49 2 16 1 17 -7 5 -5 -8 -10 -10 -10 -5 0 10 39 49 50 50 3 0 4 13 2 28
-1 20 1 26 10 21 10 -6 11 -4 1 7 -16 16 -17 39 -2 39 5 0 8 -4 4 -9 -3 -5 -1
-12 4 -15 5 -4 8 2 6 11 -3 23 13 55 25 48 4 -3 3 6 -3 19 -7 13 -16 22 -20
19 -5 -3 -4 4 2 14 6 11 7 23 3 27 -3 4 1 4 10 1 16 -6 17 13 17 241 0 230 -1
249 -18 261 -12 8 -17 20 -14 33 3 12 0 20 -6 20 -7 0 -9 5 -6 10 3 6 1 10 -5
10 -7 0 -9 7 -6 15 4 10 -2 19 -16 24 -17 6 -18 9 -5 14 15 6 33 -18 28 -38
-2 -5 1 -6 6 -2 4 5 8 12 8 15 0 4 4 14 10 22 8 13 7 13 -10 0 -17 -14 -18
-13 -12 2 3 10 2 20 -2 23 -5 2 -7 18 -6 34 2 24 -1 28 -18 23 -20 -5 -20 -6
-2 -12 11 -4 14 -9 8 -13 -6 -4 -17 0 -24 9 -14 17 -20 56 -7 48 17 -11 7 9
-14 25 -16 14 -18 20 -8 26 8 5 11 4 6 -3 -3 -6 -2 -13 3 -16 5 -4 12 -2 15 3
9 14 -20 32 -40 25 -18 -6 -18 -6 0 8 13 11 16 17 7 22 -6 4 -8 12 -5 18 5 7
1 9 -9 5 -10 -3 -17 -2 -17 3 0 5 -8 7 -17 4 -17 -5 -17 -5 0 6 9 6 23 8 30 4
9 -6 9 -5 0 8 -7 8 -9 19 -5 24 4 4 -2 2 -12 -6 -18 -14 -18 -13 -11 10 7 22
6 23 -8 12 -12 -10 -17 -10 -23 -1 -4 7 -3 9 3 6 17 -10 24 20 8 33 -10 8 -16
7 -25 -7 -9 -14 -10 -14 -7 -2 3 9 1 21 -5 27 -6 6 -6 12 3 17 8 5 10 4 5 -3
-4 -7 -2 -12 4 -12 7 0 10 6 7 13 -2 6 -11 11 -21 9 -10 -2 -16 4 -16 18 0 11
-4 20 -8 20 -5 0 -17 7 -28 15 -16 13 -16 14 -1 9 9 -3 17 -2 17 3 0 8 -15 12
-58 15 -9 1 -8 8 4 25 15 23 15 24 -5 14 -11 -6 -26 -11 -33 -10 -7 0 -3 4 10
9 12 5 22 15 21 22 0 10 -2 10 -6 0 -7 -18 -23 -4 -17 16 5 13 4 14 -4 3 -8
-11 -13 -11 -33 2 -21 15 -38 54 -18 41 5 -3 7 -9 5 -13 -3 -4 4 -12 15 -19
11 -7 19 -8 19 -2 0 5 -4 10 -10 10 -5 0 -10 6 -10 13 0 6 -12 21 -27 31 -14
11 -23 14 -19 8 4 -7 2 -12 -3 -12 -10 0 -15 14 -12 34 1 5 -5 6 -14 3 -18 -8
-45 1 -45 15 0 6 7 5 15 -2 13 -11 14 -10 9 4 -4 11 -13 15 -25 11 -11 -4 -19
-2 -19 5 0 6 -5 8 -11 4 -7 -4 -9 2 -7 16 2 14 -3 25 -12 27 -13 4 -13 3 0 -6
12 -9 10 -10 -12 -9 -20 2 -24 6 -17 14 7 8 6 15 -2 20 -8 4 -9 3 -5 -4 4 -7
2 -12 -3 -12 -6 0 -11 6 -11 14 0 9 -8 12 -25 8 -14 -2 -25 0 -25 7 0 5 8 8
18 5 16 -5 16 -5 -1 6 -9 6 -15 15 -13 19 3 4 -16 6 -42 5 -26 -1 -39 0 -29 2
25 8 21 23 -5 16 -13 -3 -19 -1 -15 5 12 19 -22 23 -39 6 -16 -16 -16 -15 -9
7 8 25 8 25 -14 6 -11 -11 -24 -16 -28 -13 -3 4 -1 7 5 7 6 0 16 9 22 19 7 15
7 19 -5 17 -8 -1 -18 -6 -22 -11 -4 -4 -2 -5 6 0 10 5 12 4 7 -4 -4 -6 -11 -9
-16 -6 -4 3 -11 -1 -14 -7 -3 -7 -3 -3 0 10 4 16 1 22 -11 22 -10 0 -13 5 -9
12 4 7 3 8 -5 4 -9 -6 -9 -11 0 -22 6 -8 7 -14 2 -14 -5 0 -16 11 -23 25 -7
14 -17 26 -22 26 -19 3 -24 5 -38 14 -12 7 -13 6 -4 -6 9 -11 9 -17 -2 -27
-11 -10 -15 -8 -25 10 -12 22 -11 22 6 8 18 -14 18 -14 2 9 -13 20 -27 25 -68
28 -31 1 -59 -3 -68 -10 -12 -10 -13 -9 -7 1 6 11 -36 13 -223 11 -127 -1
-231 -3 -231 -5 0 -2 10 -13 23 -25 21 -21 21 -21 1 -10 -18 9 -24 7 -36 -10
-14 -21 -14 -21 -14 -1 0 11 4 19 7 16 4 -2 11 1 15 7 5 8 3 9 -6 4 -10 -6
-12 -4 -7 8 9 23 0 21 -12 -2z m84 -9 c-3 -3 -11 0 -18 7 -9 10 -8 11 6 5 10
-3 15 -9 12 -12z m35 14 c0 -3 -4 -8 -10 -11 -5 -3 -10 -1 -10 4 0 6 5 11 10
11 6 0 10 -2 10 -4z m490 -8 c0 -4 -5 -8 -11 -8 -5 0 -8 -4 -4 -9 3 -5 0 -13
-6 -17 -8 -4 -9 -3 -5 4 4 8 -3 16 -18 22 -34 13 -33 15 9 15 19 0 35 -3 35
-7z m-65 -18 c3 -6 -1 -7 -9 -4 -18 7 -21 14 -7 14 6 0 13 -4 16 -10z m136
-23 c-13 -13 -26 -3 -16 12 3 6 11 8 17 5 6 -4 6 -10 -1 -17z m-845 -42 c-1
-8 -5 -17 -8 -21 -5 -4 -4 16 1 34 3 9 9 -1 7 -13z m1022 -60 c-3 -3 -9 2 -12
12 -6 14 -5 15 5 6 7 -7 10 -15 7 -18z m-1161 -9 c-4 -9 -14 -12 -26 -9 -12 3
-18 9 -15 15 3 5 12 4 20 -3 11 -9 14 -8 14 6 0 10 3 16 6 12 4 -3 4 -13 1
-21z m1243 3 c0 -5 -8 -9 -17 -8 -11 0 -13 3 -5 6 6 2 9 10 6 15 -4 7 -2 8 4
4 7 -4 12 -11 12 -17z m243 -174 c-3 -9 -8 -14 -10 -11 -3 3 -2 9 2 15 9 16
15 13 8 -4z m-1830 -90 c4 -8 1 -17 -5 -21 -7 -4 -8 -3 -4 4 4 7 2 12 -4 12
-6 0 -8 5 -5 10 8 14 12 13 18 -5z m1992 -93 c-3 -3 -11 0 -18 7 -9 10 -8 11
6 5 10 -3 15 -9 12 -12z m70 -72 c3 -5 1 -10 -4 -10 -6 0 -11 5 -11 10 0 6 2
10 4 10 3 0 8 -4 11 -10z m60 -120 c3 -5 1 -10 -4 -10 -6 0 -11 5 -11 10 0 6
2 10 4 10 3 0 8 -4 11 -10z m72 -157 c-4 -3 -1 -13 6 -22 10 -14 10 -14 -4 -4
-9 7 -20 9 -25 5 -4 -4 -2 1 5 11 7 9 16 17 19 17 3 0 2 -3 -1 -7z m-2467 -86
c0 -4 -6 -2 -14 5 -8 7 -12 17 -9 22 5 8 23 -12 23 -27z m-21 -33 c-6 -8 -8
-14 -4 -14 5 0 0 -9 -9 -19 -11 -12 -13 -21 -6 -24 6 -4 6 -5 -1 -3 -19 3 -19
33 1 54 11 11 16 23 12 28 -4 4 -1 4 6 0 10 -6 10 -11 1 -22z m2521 -64 c0 -5
-2 -10 -4 -10 -3 0 -8 5 -11 10 -3 6 -1 10 4 10 6 0 11 -4 11 -10z m20 -40 c0
-5 -2 -10 -4 -10 -3 0 -8 5 -11 10 -3 6 -1 10 4 10 6 0 11 -4 11 -10z m-2546
-398 c3 -5 -1 -9 -9 -9 -8 0 -12 4 -9 9 3 4 7 8 9 8 2 0 6 -4 9 -8z m2498
-124 c-6 -6 -7 0 -4 19 5 21 7 23 10 9 2 -10 0 -22 -6 -28z m26 -8 c-7 -11
-14 -17 -17 -15 -2 3 1 11 7 18 7 8 8 18 4 22 -4 5 -1 5 5 1 10 -5 10 -11 1
-26z m-38 -70 c0 -5 -2 -10 -4 -10 -3 0 -8 5 -11 10 -3 6 -1 10 4 10 6 0 11
-4 11 -10z m7 -46 c0 -8 -3 -12 -5 -9 -3 3 -11 0 -19 -7 -11 -9 -12 -7 -7 7 6
14 4 16 -6 10 -8 -5 -11 -4 -7 1 9 15 44 14 44 -2z m-44 -87 c-5 -8 -8 -7 -11
1 -2 7 -9 9 -14 6 -7 -4 -8 -2 -4 4 4 6 13 9 21 6 8 -4 12 -11 8 -17z m-46
-42 c0 -8 -4 -15 -9 -15 -10 0 -11 14 -1 23 9 10 10 9 10 -8z m-86 -162 c-12
-20 -14 -14 -5 12 4 9 9 14 11 11 3 -2 0 -13 -6 -23z m-1932 -210 c-3 -20 3
-23 24 -13 21 11 21 10 3 -4 -14 -12 -23 -13 -33 -5 -7 6 -10 15 -7 20 6 11
14 12 13 2z m218 -156 c-5 -16 -35 -17 -47 -2 -9 11 -5 14 20 13 17 -1 29 -6
27 -11z m1319 -19 c3 -4 -1 -5 -10 -4 -8 1 -18 5 -22 8 -3 4 1 5 10 4 8 -1 18
-5 22 -8z m-110 -60 c3 -4 -1 -5 -10 -4 -8 1 -18 5 -22 8 -3 4 1 5 10 4 8 -1
18 -5 22 -8z m-75 -12 c14 8 11 -2 -4 -14 -10 -8 -13 -6 -14 11 0 12 1 16 4 9
3 -6 9 -10 14 -6z m-907 -28 c-3 -4 -11 -5 -19 -1 -21 7 -19 12 4 10 11 0 18
-5 15 -9z m23 -10 c-3 -8 -6 -5 -6 6 -1 11 2 17 5 13 3 -3 4 -12 1 -19z m113
-2 c0 -3 -4 -8 -10 -11 -5 -3 -10 -1 -10 4 0 6 5 11 10 11 6 0 10 -2 10 -4z
m650 -2 c0 -8 -19 -13 -24 -6 -3 5 1 9 9 9 8 0 15 -2 15 -3z m-59 -29 c15 10
10 -2 -8 -16 -11 -10 -14 -10 -9 -2 9 16 1 16 -27 2 -20 -10 -19 -9 3 12 17
16 26 20 28 11 2 -7 8 -10 13 -7z m-511 -9 c0 -3 -4 -8 -10 -11 -5 -3 -10 -1
-10 4 0 6 5 11 10 11 6 0 10 -2 10 -4z"/>
<path d="M955 2560 c3 -5 8 -10 11 -10 2 0 4 5 4 10 0 6 -5 10 -11 10 -5 0 -7
-4 -4 -10z"/>
<path d="M2289 2153 c-13 -16 -12 -17 4 -4 9 7 17 15 17 17 0 8 -8 3 -21 -13z"/>
<path d="M210 2040 c0 -5 5 -10 11 -10 5 0 7 5 4 10 -3 6 -8 10 -11 10 -2 0
-4 -4 -4 -10z"/>
<path d="M190 1979 c0 -5 5 -7 10 -4 6 3 10 8 10 11 0 2 -4 4 -10 4 -5 0 -10
-5 -10 -11z"/>
<path d="M146 1931 c-4 -5 -2 -12 3 -15 5 -4 12 -2 15 3 4 5 2 12 -3 15 -5 4
-12 2 -15 -3z"/>
<path d="M2510 1775 c-11 -13 -10 -14 4 -9 9 3 16 10 16 15 0 13 -6 11 -20 -6z"/>
<path d="M54 1732 c3 -5 0 -13 -6 -15 -9 -4 -10 -6 -1 -6 17 -1 25 16 12 25
-7 4 -9 3 -5 -4z"/>
<path d="M2575 1639 c-4 -6 -5 -12 -2 -15 2 -3 7 2 10 11 7 17 1 20 -8 4z"/>
<path d="M2586 1613 c-6 -14 -5 -15 5 -6 7 7 10 15 7 18 -3 3 -9 -2 -12 -12z"/>
<path d="M2577 1584 c-8 -8 1 -24 12 -24 4 0 8 7 8 15 0 16 -9 20 -20 9z"/>
<path d="M2587 1020 c3 -11 7 -20 9 -20 2 0 4 9 4 20 0 11 -4 20 -9 20 -5 0
-7 -9 -4 -20z"/>
<path d="M26 972 c-3 -5 1 -15 8 -21 11 -10 14 -9 12 3 -3 21 -13 29 -20 18z"/>
<path d="M30 920 c0 -5 5 -10 11 -10 5 0 7 5 4 10 -3 6 -8 10 -11 10 -2 0 -4
-4 -4 -10z"/>
<path d="M80 811 c0 -6 4 -13 10 -16 6 -3 7 1 4 9 -7 18 -14 21 -14 7z"/>
<path d="M130 725 c0 -16 16 -20 24 -6 3 5 -1 11 -9 15 -9 3 -15 0 -15 -9z"/>
<path d="M160 660 c0 -5 5 -10 11 -10 5 0 7 5 4 10 -3 6 -8 10 -11 10 -2 0 -4
-4 -4 -10z"/>
<path d="M170 631 c0 -5 7 -12 16 -15 14 -5 15 -4 4 9 -14 17 -20 19 -20 6z"/>
<path d="M2395 601 c-6 -11 13 -26 22 -17 4 3 1 6 -6 6 -7 0 -9 5 -6 10 3 6 4
10 1 10 -3 0 -7 -4 -11 -9z"/>
<path d="M295 460 c-3 -5 1 -10 10 -10 9 0 13 5 10 10 -3 6 -8 10 -10 10 -2 0
-7 -4 -10 -10z"/>
<path d="M2283 453 c-22 -8 -14 -22 8 -18 12 3 24 6 26 8 6 7 -21 14 -34 10z"/>
<path d="M516 245 c4 -8 8 -15 10 -15 2 0 4 7 4 15 0 8 -4 15 -10 15 -5 0 -7
-7 -4 -15z"/>
<path d="M795 99 c-4 -6 -5 -12 -2 -15 2 -3 7 2 10 11 7 17 1 20 -8 4z"/>
<path d="M915 50 c3 -5 8 -10 11 -10 2 0 4 5 4 10 0 6 -5 10 -11 10 -5 0 -7
-4 -4 -10z"/>
</g>
</svg>
