<?xml version="1.0" standalone="no"?>
<!DOCTYPE svg PUBLIC "-//W3C//DTD SVG 20010904//EN"
 "http://www.w3.org/TR/2001/REC-SVG-20010904/DTD/svg10.dtd">
<svg version="1.0" xmlns="http://www.w3.org/2000/svg"
 width="512.000000pt" height="512.000000pt" viewBox="0 0 512.000000 512.000000"
 preserveAspectRatio="xMidYMid meet">
<metadata>
Created by potrace 1.14, written by Peter Selinger 2001-2017
</metadata>
<g transform="translate(0.000000,512.000000) scale(0.100000,-0.100000)"
fill="#000000" stroke="none">
<path d="M2341 5109 c-900 -80 -1699 -633 -2087 -1444 -116 -244 -184 -465
-225 -736 -26 -172 -31 -514 -10 -669 67 -495 233 -897 529 -1280 84 -109 323
-348 432 -432 383 -296 785 -462 1280 -529 154 -21 497 -16 665 9 393 61 726
188 1048 402 911 606 1335 1712 1062 2775 -222 868 -908 1569 -1776 1815 -297
84 -620 115 -918 89z m309 -145 c0 -4 -14 -30 -32 -58 -17 -28 -41 -82 -52
-120 -20 -65 -24 -70 -56 -79 -46 -12 -58 -23 -84 -77 -24 -50 -35 -52 -111
-25 -31 11 -46 25 -64 60 -15 28 -49 65 -88 96 -72 56 -139 140 -120 150 17
10 197 39 297 48 106 10 310 13 310 5z m390 -44 c80 -16 195 -45 257 -65 l111
-35 -5 -73 c-3 -48 0 -95 11 -140 24 -103 21 -132 -25 -217 -72 -135 -80 -162
-80 -280 1 -112 2 -107 -63 -214 -58 -95 -43 -196 40 -282 61 -62 132 -93 246
-105 222 -24 227 -25 345 -85 144 -73 197 -80 294 -39 119 51 192 40 239 -37
25 -42 25 -90 0 -163 -22 -64 -26 -148 -9 -192 15 -40 -6 -53 -160 -103 -184
-59 -262 -99 -330 -168 -66 -68 -107 -146 -127 -245 -22 -104 -7 -190 57 -337
28 -63 66 -149 85 -190 27 -62 36 -103 53 -235 39 -308 108 -455 302 -647 l97
-97 -131 -128 c-73 -71 -177 -162 -232 -204 -636 -477 -1439 -612 -2200 -369
-791 254 -1407 922 -1598 1735 -48 202 -61 323 -61 555 0 231 13 353 60 550
27 117 113 380 124 380 4 0 34 -25 68 -56 l62 -56 0 -149 c0 -106 4 -159 14
-182 8 -18 109 -126 225 -242 116 -115 211 -217 211 -227 0 -9 -10 -34 -22
-55 -21 -35 -23 -52 -26 -237 -4 -218 3 -259 54 -307 13 -12 125 -95 247 -184
l222 -161 5 -264 5 -265 67 -141 68 -141 0 -122 c0 -165 24 -220 115 -262 58
-27 253 -27 310 0 47 22 89 64 104 104 6 16 11 107 11 212 l0 184 96 93 c120
116 133 142 134 267 0 93 0 94 35 132 40 44 44 75 15 107 -31 33 -81 29 -125
-10 -60 -52 -75 -93 -75 -206 l0 -99 -104 -99 c-80 -77 -106 -109 -115 -139
-6 -22 -11 -119 -11 -215 0 -124 -4 -180 -12 -188 -8 -8 -47 -12 -108 -12 -61
0 -100 4 -108 12 -8 8 -12 54 -12 142 l0 130 -67 140 -68 141 -5 271 c-5 264
-6 271 -29 305 -14 20 -122 106 -260 205 l-236 170 -3 170 c-2 162 -1 171 23
225 30 67 31 119 6 174 -12 25 -97 117 -225 245 l-206 205 0 148 c0 101 -4
158 -13 180 -8 18 -55 71 -105 119 -51 48 -92 91 -92 95 0 19 160 275 228 366
93 123 258 296 382 399 100 83 273 202 376 258 l60 32 122 -98 122 -98 0 -121
c0 -134 10 -181 45 -223 36 -43 86 -63 178 -70 l82 -7 3 -72 3 -72 -76 -56
c-42 -31 -81 -67 -87 -80 -23 -50 34 -115 86 -99 24 8 153 102 178 130 34 38
48 91 48 176 0 100 -21 152 -75 194 -33 25 -48 29 -127 34 -63 3 -91 9 -98 20
-5 8 -10 74 -10 145 0 164 -8 179 -143 289 l-98 79 33 15 c26 11 227 82 234
82 0 0 17 -26 37 -59 35 -56 157 -181 177 -181 5 0 21 -22 35 -49 13 -28 40
-61 58 -75 48 -36 142 -67 208 -67 82 -1 126 26 163 99 9 17 23 32 31 32 24 0
80 56 97 97 9 21 23 58 30 84 8 25 36 80 63 122 58 92 50 91 265 47z m603
-206 c507 -256 903 -675 1126 -1195 282 -658 267 -1384 -43 -2014 -66 -135
-219 -384 -246 -400 -15 -9 -104 68 -168 145 -64 78 -134 218 -156 315 -9 39
-23 129 -32 200 -18 140 -42 222 -107 350 -109 218 -117 335 -32 463 43 64
114 106 280 162 245 83 301 126 291 225 -3 28 -8 66 -11 86 -5 24 0 58 14 103
50 163 1 303 -136 383 -70 41 -169 44 -254 8 -103 -44 -110 -43 -234 18 -135
67 -159 74 -315 87 -140 13 -191 30 -233 79 -36 43 -34 64 9 122 49 67 64 123
64 243 l0 101 56 113 c67 133 76 194 50 310 -18 81 -21 132 -6 132 6 0 43 -16
83 -36z"/>
<path d="M1544 3595 l-59 -44 -183 -1 c-148 0 -189 -3 -215 -16 -91 -46 -107
-86 -107 -268 0 -80 5 -157 11 -173 14 -37 264 -290 311 -314 33 -17 59 -19
216 -19 125 0 182 -4 190 -12 7 -7 12 -37 12 -68 0 -107 33 -176 100 -210 33
-17 60 -20 162 -20 173 0 168 2 183 -83 8 -47 57 -104 110 -128 33 -16 67 -19
201 -19 111 0 164 -4 172 -12 8 -8 12 -61 12 -173 l0 -160 -75 -63 c-44 -37
-77 -73 -81 -88 -10 -38 24 -78 68 -82 30 -3 46 6 118 64 119 96 122 106 118
348 -3 184 -4 194 -27 228 -13 19 -40 46 -59 59 -34 23 -45 24 -211 27 -104 2
-181 8 -188 14 -7 6 -13 22 -13 36 0 40 -39 110 -78 140 -34 26 -41 27 -189
32 -122 4 -156 8 -163 20 -5 8 -10 46 -10 84 0 89 -26 147 -83 184 -40 27 -43
27 -232 30 l-192 3 -117 118 -117 117 3 124 3 125 195 5 c138 4 202 9 220 19
37 20 133 92 147 110 18 24 15 55 -8 85 -32 40 -73 35 -145 -19z"/>
</g>
</svg>
